<?xml version="1.0" encoding="utf-8" ?><svg xmlns="http://www.w3.org/2000/svg" xmlns:xlink="http://www.w3.org/1999/xlink" width="170" height="257" viewBox="0 0 170 257"><path fill="#8A6B4E" d="M81.1008 7.12611C84.0151 7.96265 89.6067 21.3921 90.7004 24.5985C98.3423 47.0039 87.6579 62.602 73.7203 78.9851C55.9839 99.8338 34.5579 123.338 36.4108 152.507C37.6231 177.341 53.922 194.872 71.7445 210.422C75.961 214.134 81.5438 217.889 85.3839 221.394C90.5046 215.827 96.1082 212.184 101.59 207.152C113.156 196.536 125.956 184.705 130.743 169.334C134.69 156.661 130.929 148.881 125.068 138.043C121.765 143.914 113.702 149.925 113.584 156.634C113.539 159.154 114.695 161.767 114.777 164.646C112.514 168.469 108.918 173.248 106.3 177.004C100.534 169.565 91.3762 160.873 94.1519 150.481C95.8368 144.521 100.127 139.408 103.912 134.579C111.223 125.252 118.435 115.997 121.625 104.294C121.658 103.943 121.869 103.564 121.955 103.216C122.922 99.2577 123.841 95.168 124.052 91.1017C124.656 92.0544 125.525 93.9084 126.205 95.0695L133.428 107.299C139.269 117.217 145.57 126.779 149.741 137.593C156.039 153.925 154.964 169.926 148.102 185.802C138.043 209.073 108.951 235.115 85.3963 244.153C73.4486 239.203 60.0656 229.869 50.3104 221.466C21.5299 197.129 5.95922 161.059 19.062 124.063C27.7827 99.3233 45.4308 78.4623 61.883 58.5534C73.6393 44.327 83.4336 30.9573 81.8025 11.6793C81.6745 10.1665 81.1835 8.72211 81.1083 7.29354L81.1008 7.12611Z"/><path fill="#8A6B4E" d="M104.346 49.4838C104.635 49.56 105.299 49.7518 105.474 50.0119C109.748 56.3726 112.401 63.1832 113.507 70.705C117.232 96.0351 98.7762 114.111 84.1296 132.027C79.4782 137.796 75.1172 143.961 74.5483 151.705C73.4094 167.208 86.3908 178.415 95.5493 189.062C92.0659 192.618 88.5679 196.423 85.1601 200.066L82.9086 198.519C80.7465 196.039 76.8991 192.968 74.403 190.595C61.9865 178.788 51.7432 165.909 52.3743 147.743C53.396 118.334 82.7682 100.012 97.2133 76.996C101.366 70.3799 106.185 57.1911 104.346 49.4838Z"/></svg>